<?xml version="1.0" encoding="utf-8"?>
<!-- Generator: Adobe Illustrator 18.1.1, SVG Export Plug-In . SVG Version: 6.00 Build 0)  -->
<svg version="1.1" id="Layer_1" xmlns="http://www.w3.org/2000/svg" xmlns:xlink="http://www.w3.org/1999/xlink" x="0px" y="0px"
	 viewBox="0 0 128 128" enable-background="new 0 0 128 128" xml:space="preserve">
<g>
	<rect y="-0.28" fill="#050709" width="127.95" height="128.28"/>
	<g>
		<path fill="#60AA43" d="M4.63,46.75l20.89-11.64c0.34-0.18,0.59-0.28,0.76-0.28c0.26,0,0.49,0.1,0.68,0.29
			c0.19,0.19,0.29,0.42,0.29,0.68c0,0.38-0.26,0.72-0.78,1.01l-17.9,9.94l17.88,9.94c0.52,0.29,0.78,0.63,0.78,1.01
			c0,0.26-0.1,0.49-0.29,0.68c-0.19,0.19-0.42,0.29-0.68,0.29c-0.17,0-0.42-0.09-0.76-0.28L4.63,46.75z"/>
		<path fill="#D2313D" d="M34.11,55.45V36.99c-1-0.01-1.73-0.24-2.21-0.68c-0.48-0.44-0.71-1-0.71-1.69c0-0.7,0.24-1.28,0.72-1.71
			c0.48-0.44,1.29-0.65,2.43-0.65l9.87,0.02c1.54,0,3.03,0.29,4.5,0.85c1.47,0.57,2.64,1.29,3.53,2.16
			c0.67,0.66,1.38,1.57,2.11,2.72c0.73,1.15,1.28,2.29,1.65,3.43c0.37,1.14,0.55,2.52,0.55,4.16v2.26c0,1.99-0.34,3.76-1.01,5.3
			c-0.67,1.54-1.56,2.8-2.66,3.77s-2.13,1.69-3.09,2.15c-1.54,0.72-3.52,1.08-5.96,1.08h-9.48c-1.14,0-1.94-0.22-2.43-0.65
			c-0.48-0.44-0.72-1.01-0.72-1.71c0-0.69,0.24-1.26,0.72-1.7C32.4,55.65,33.13,55.43,34.11,55.45z M38.83,55.45h5.01
			c1.87,0,3.28-0.27,4.23-0.8c1.24-0.7,2.18-1.6,2.81-2.69c0.63-1.09,0.94-2.5,0.94-4.23v-2.23c0-1.49-0.28-2.79-0.85-3.91
			c-0.89-1.75-1.89-2.95-3-3.6c-1.11-0.65-2.51-0.98-4.18-0.98h-4.97L38.83,55.45L38.83,55.45z"/>
		<path fill="#19C3DD" d="M80.06,52.11H60.72c0.49,1.23,1.36,2.22,2.61,2.97c1.25,0.75,2.94,1.13,5.07,1.13
			c1.75,0,4.07-0.38,6.97-1.13c1.2-0.31,2.02-0.46,2.49-0.46c0.63,0,1.16,0.22,1.59,0.67c0.43,0.45,0.64,1,0.64,1.68
			c0,0.61-0.23,1.14-0.69,1.57c-0.61,0.57-2.11,1.11-4.49,1.62c-2.38,0.52-4.66,0.77-6.86,0.77c-3.77,0-6.79-1.07-9.05-3.2
			c-2.26-2.13-3.39-4.76-3.39-7.87c0-3.31,1.22-6.01,3.67-8.09c2.45-2.08,5.26-3.12,8.45-3.12c1.92,0,3.68,0.34,5.28,1.01
			c1.6,0.67,2.79,1.4,3.58,2.19c1.1,1.14,2.02,2.54,2.74,4.21c0.49,1.17,0.74,2.52,0.74,4.05L80.06,52.11L80.06,52.11z M74.84,47.39
			c-0.72-1.35-1.66-2.36-2.83-3.02c-1.17-0.67-2.56-1-4.16-1c-1.6,0-2.97,0.33-4.14,1c-1.17,0.67-2.12,1.67-2.85,3.02H74.84z"/>
		<path fill="#60AA43" d="M91.83,54.44l5.08-10.45c-1.26,0-2.06-0.11-2.42-0.32c-0.77-0.48-1.15-1.16-1.15-2.05
			c0-0.69,0.24-1.25,0.72-1.69c0.48-0.44,1.29-0.65,2.43-0.65h6.47c1.14,0,1.94,0.22,2.43,0.65c0.48,0.44,0.72,1.01,0.72,1.71
			c0,0.69-0.24,1.25-0.72,1.69c-0.48,0.44-1.29,0.65-2.43,0.65h-0.78l-7.89,16.17h-4.93l-7.89-16.17h-0.67
			c-1.14,0-1.94-0.22-2.43-0.65c-0.48-0.44-0.72-1.01-0.72-1.71c0-0.69,0.24-1.25,0.72-1.69c0.48-0.44,1.29-0.65,2.43-0.65h6.33
			c1.12,0,1.92,0.22,2.41,0.65c0.48,0.44,0.72,1.01,0.72,1.71c0,0.87-0.37,1.54-1.1,2c-0.37,0.23-1.19,0.35-2.46,0.35L91.83,54.44z"
			/>
		<path fill="#FFCF00" d="M28.49,64.89c0.29-0.4,0.61-0.7,0.95-0.9s0.72-0.3,1.12-0.3c0.69,0,1.25,0.24,1.69,0.71
			c0.44,0.48,0.65,1.28,0.65,2.42v4c0,1.14-0.22,1.94-0.65,2.43c-0.44,0.48-1,0.72-1.69,0.72c-0.63,0-1.14-0.18-1.52-0.53
			c-0.38-0.35-0.67-1.01-0.85-1.98c-0.11-0.64-0.32-1.14-0.64-1.5c-0.63-0.69-1.51-1.24-2.64-1.65c-1.13-0.42-2.26-0.62-3.39-0.62
			c-1.41,0-2.71,0.31-3.89,0.92c-1.18,0.61-2.22,1.61-3.13,2.99c-0.9,1.38-1.36,3.02-1.36,4.93v3.06c0,2.27,0.82,4.16,2.47,5.68
			c1.65,1.52,3.94,2.28,6.87,2.28c1.75,0,3.23-0.24,4.44-0.71c0.7-0.28,1.46-0.82,2.26-1.64c0.49-0.49,0.87-0.81,1.15-0.95
			c0.28-0.15,0.59-0.22,0.94-0.22c0.63,0,1.18,0.24,1.66,0.71c0.48,0.48,0.71,1.04,0.71,1.68c0,0.64-0.32,1.34-0.97,2.07
			c-0.94,1.07-2.14,1.92-3.61,2.53c-1.98,0.83-4.16,1.24-6.56,1.24c-2.79,0-5.31-0.57-7.55-1.72c-1.81-0.92-3.35-2.37-4.63-4.36
			c-1.27-1.99-1.91-4.15-1.91-6.5v-3.2c0-2.45,0.57-4.74,1.71-6.87c1.14-2.12,2.73-3.76,4.75-4.91c2.02-1.15,4.17-1.72,6.44-1.72
			c1.37,0,2.64,0.16,3.83,0.47C26.36,63.76,27.46,64.24,28.49,64.89z"/>
		<path fill="#E8561F" d="M56.91,81.52c0,1.81-0.5,3.56-1.51,5.26c-1,1.69-2.5,3.04-4.49,4.05c-1.99,1-4.06,1.51-6.22,1.51
			c-2.15,0-4.2-0.5-6.17-1.49c-1.96-0.99-3.46-2.34-4.49-4.04s-1.54-3.48-1.54-5.34c0-1.89,0.52-3.74,1.57-5.56
			c1.04-1.82,2.54-3.25,4.5-4.29s4-1.57,6.13-1.57c2.15,0,4.21,0.53,6.2,1.6c1.99,1.07,3.49,2.5,4.5,4.3
			C56.41,77.77,56.91,79.62,56.91,81.52z M52.2,81.55c0-1.52-0.55-2.91-1.64-4.19c-1.49-1.72-3.44-2.58-5.87-2.58
			c-2.13,0-3.91,0.68-5.34,2.05c-1.43,1.37-2.14,2.94-2.14,4.74c0,1.47,0.72,2.85,2.16,4.13s3.21,1.92,5.31,1.92
			c2.12,0,3.89-0.64,5.34-1.92C51.47,84.42,52.2,83.04,52.2,81.55z"/>
		<path fill="#60AA43" d="M63.45,70.69v1.59c0.86-0.74,1.8-1.29,2.84-1.66c1.04-0.37,2.16-0.55,3.37-0.55c2.79,0,5,0.87,6.63,2.6
			c1.29,1.38,1.93,3.19,1.93,5.43v8.77c1,0,1.73,0.22,2.21,0.65c0.48,0.44,0.71,1.01,0.71,1.71c0,0.69-0.24,1.25-0.72,1.69
			c-0.48,0.44-1.29,0.65-2.43,0.65h-4.26c-1.14,0-1.94-0.22-2.43-0.65c-0.48-0.44-0.72-1.01-0.72-1.71c0-0.69,0.24-1.25,0.71-1.69
			s1.21-0.65,2.21-0.65v-8.9c0-1.03-0.28-1.78-0.83-2.26c-0.72-0.61-1.8-0.92-3.24-0.92c-1.09,0-2.04,0.21-2.86,0.63
			c-0.82,0.42-1.86,1.32-3.12,2.68v8.77c1.21,0,1.99,0.12,2.35,0.35c0.75,0.46,1.13,1.14,1.13,2.02c0,0.69-0.24,1.25-0.72,1.69
			c-0.48,0.44-1.29,0.65-2.43,0.65h-5.36c-1.14,0-1.94-0.22-2.43-0.65c-0.48-0.44-0.72-1.01-0.72-1.71c0-0.86,0.37-1.53,1.1-2
			c0.37-0.23,1.16-0.35,2.37-0.35V75.4c-1,0-1.73-0.22-2.21-0.67s-0.71-1.01-0.71-1.7c0-0.69,0.24-1.25,0.72-1.69
			c0.48-0.44,1.29-0.65,2.43-0.65H63.45z"/>
		<path fill="#60AA43" d="M100.48,61.3L84.93,94.61c-0.26,0.57-0.6,0.85-1.01,0.85c-0.26,0-0.49-0.1-0.68-0.29
			c-0.19-0.19-0.29-0.4-0.29-0.63c0-0.18,0.08-0.44,0.23-0.76L98.7,60.47c0.17-0.35,0.33-0.58,0.48-0.69
			c0.15-0.11,0.34-0.16,0.55-0.16c0.26,0,0.49,0.1,0.68,0.29c0.19,0.19,0.29,0.4,0.29,0.63C100.71,60.71,100.63,60.96,100.48,61.3z"
			/>
		<path fill="#60AA43" d="M123.32,78.16l-20.89,11.64c-0.34,0.18-0.59,0.28-0.76,0.28c-0.26,0-0.49-0.1-0.68-0.29
			c-0.19-0.19-0.29-0.42-0.29-0.68c0-0.38,0.26-0.72,0.78-1.01l17.9-9.94l-17.88-9.94c-0.52-0.29-0.78-0.63-0.78-1.01
			c0-0.26,0.1-0.49,0.29-0.68c0.19-0.19,0.42-0.29,0.68-0.29c0.17,0,0.42,0.09,0.76,0.28L123.32,78.16z"/>
	</g>
</g>
</svg>
