<?xml version="1.0" encoding="utf-8"?>
<!-- Generator: Adobe Illustrator 18.1.1, SVG Export Plug-In . SVG Version: 6.00 Build 0)  -->
<svg version="1.1" id="Layer_1" xmlns="http://www.w3.org/2000/svg" xmlns:xlink="http://www.w3.org/1999/xlink" x="0px" y="0px"
	 viewBox="0 0 800 128" enable-background="new 0 0 800 128" xml:space="preserve">
<g>
	<rect y="11" fill="#FFFFFF" width="800" height="104.66"/>
	<g>
		<g>
			<path fill="#D2313D" d="M41.76,77.53V45.2c-1.76,0-3.01-0.41-3.83-1.14c-0.83-0.73-1.24-1.76-1.24-3.01
				c0-1.24,0.41-2.28,1.24-3.01c0.83-0.73,2.28-1.14,4.25-1.14h17.31c2.69,0,5.28,0.52,7.88,1.45c2.59,1.04,4.66,2.28,6.22,3.83
				c1.14,1.14,2.38,2.69,3.73,4.77c1.24,1.97,2.28,4.04,2.9,6.01c0.62,1.97,0.93,4.46,0.93,7.25v3.94c0,3.52-0.62,6.63-1.76,9.33
				s-2.69,4.87-4.66,6.63c-1.97,1.66-3.73,3.01-5.39,3.73c-2.69,1.24-6.22,1.87-10.47,1.87H42.28c-1.97,0-3.42-0.41-4.25-1.14
				c-0.83-0.73-1.24-1.76-1.24-3.01c0-1.24,0.41-2.18,1.24-3.01C38.76,77.84,40.1,77.53,41.76,77.53z M50.05,77.53h8.81
				c3.32,0,5.8-0.52,7.46-1.45c2.18-1.24,3.83-2.8,4.87-4.77c1.14-1.87,1.66-4.35,1.66-7.46v-3.94c0-2.59-0.52-4.87-1.45-6.84
				c-1.55-3.11-3.32-5.18-5.28-6.32c-1.97-1.14-4.35-1.76-7.36-1.76h-8.7L50.05,77.53L50.05,77.53z"/>
			<path fill="#19C3DD" d="M122.38,70.38H88.5c0.83,2.18,2.38,3.94,4.56,5.18c2.18,1.35,5.18,1.97,8.91,1.97
				c3.11,0,7.15-0.62,12.23-1.97c2.07-0.52,3.52-0.83,4.35-0.83c1.14,0,2.07,0.41,2.8,1.14c0.73,0.83,1.14,1.76,1.14,2.9
				c0,1.04-0.41,1.97-1.24,2.69c-1.04,1.04-3.73,1.97-7.88,2.8c-4.15,0.93-8.19,1.35-12.02,1.35c-6.63,0-11.92-1.87-15.85-5.6
				c-3.94-3.73-5.91-8.29-5.91-13.78c0-5.8,2.18-10.57,6.42-14.2s9.22-5.49,14.82-5.49c3.32,0,6.42,0.62,9.22,1.76
				c2.8,1.14,4.87,2.49,6.32,3.83c1.97,1.97,3.52,4.46,4.77,7.36c0.83,2.07,1.24,4.46,1.24,7.05V70.38z M113.16,62.09
				c-1.24-2.38-2.9-4.15-4.97-5.28c-2.07-1.14-4.46-1.76-7.25-1.76c-2.8,0-5.18,0.62-7.25,1.76c-2.07,1.14-3.73,2.9-4.97,5.28
				H113.16z"/>
			<path fill="#60AA43" d="M142.9,75.77l8.91-18.34c-2.18,0-3.63-0.21-4.25-0.52c-1.35-0.83-1.97-2.07-1.97-3.63
				c0-1.24,0.41-2.18,1.24-3.01c0.83-0.73,2.28-1.14,4.25-1.14h11.3c1.97,0,3.42,0.41,4.25,1.14c0.83,0.73,1.24,1.76,1.24,3.01
				c0,1.24-0.41,2.18-1.24,3.01c-0.83,0.73-2.28,1.14-4.25,1.14h-1.35l-13.78,28.39h-8.6l-13.78-28.39h-1.14
				c-1.97,0-3.42-0.41-4.25-1.14c-0.83-0.73-1.24-1.76-1.24-3.01c0-1.24,0.41-2.18,1.24-3.01c0.83-0.73,2.28-1.14,4.25-1.14h10.98
				c1.97,0,3.32,0.41,4.25,1.14c0.83,0.73,1.24,1.76,1.24,3.01c0,1.55-0.62,2.69-1.97,3.52c-0.62,0.41-2.07,0.62-4.35,0.62
				L142.9,75.77z"/>
			<path fill="#FFCF00" d="M204.77,37.84c0.52-0.73,1.04-1.24,1.66-1.55s1.24-0.52,1.97-0.52c1.24,0,2.18,0.41,3.01,1.24
				c0.73,0.83,1.14,2.28,1.14,4.25v7.05c0,1.97-0.41,3.42-1.14,4.25c-0.73,0.83-1.76,1.24-3.01,1.24c-1.14,0-1.97-0.31-2.69-0.93
				c-0.62-0.62-1.14-1.76-1.45-3.42c-0.21-1.14-0.52-1.97-1.14-2.59c-1.14-1.24-2.59-2.18-4.66-2.9c-1.97-0.73-3.94-1.14-5.91-1.14
				c-2.49,0-4.77,0.52-6.84,1.66c-2.07,1.04-3.94,2.8-5.49,5.28c-1.55,2.38-2.38,5.28-2.38,8.6v5.39c0,3.94,1.45,7.25,4.35,9.95
				c2.9,2.69,6.94,4.04,12.02,4.04c3.11,0,5.7-0.41,7.77-1.24c1.24-0.52,2.59-1.45,3.94-2.9c0.83-0.83,1.55-1.45,1.97-1.66
				c0.52-0.21,1.04-0.41,1.66-0.41c1.14,0,2.07,0.41,2.9,1.24c0.83,0.83,1.24,1.87,1.24,2.9c0,1.14-0.52,2.38-1.66,3.63
				c-1.66,1.87-3.73,3.32-6.32,4.46c-3.42,1.45-7.25,2.18-11.5,2.18c-4.87,0-9.33-1.04-13.26-3.01c-3.21-1.66-5.91-4.15-8.08-7.67
				c-2.28-3.52-3.32-7.25-3.32-11.4v-5.6c0-4.25,1.04-8.29,3.01-12.02c1.97-3.73,4.77-6.63,8.29-8.6s7.36-3.01,11.3-3.01
				c2.38,0,4.66,0.31,6.74,0.83C201.04,35.87,203.01,36.7,204.77,37.84z"/>
			<path fill="#E8561F" d="M254.61,66.85c0,3.21-0.83,6.22-2.59,9.22c-1.76,3.01-4.35,5.39-7.88,7.05
				c-3.52,1.76-7.15,2.69-10.88,2.69s-7.36-0.83-10.78-2.59c-3.42-1.76-6.11-4.04-7.88-7.05c-1.76-3.01-2.69-6.11-2.69-9.33
				c0-3.32,0.93-6.53,2.69-9.74c1.87-3.21,4.46-5.7,7.88-7.56s7.05-2.69,10.78-2.69s7.36,0.93,10.88,2.8
				c3.52,1.87,6.11,4.35,7.88,7.56C253.78,60.22,254.61,63.54,254.61,66.85z M246.32,66.85c0-2.69-0.93-5.08-2.9-7.36
				c-2.59-3.01-6.01-4.56-10.26-4.56c-3.73,0-6.84,1.24-9.33,3.63c-2.49,2.38-3.73,5.18-3.73,8.29c0,2.59,1.24,4.97,3.83,7.25
				c2.49,2.28,5.6,3.32,9.33,3.32s6.84-1.14,9.33-3.32C245.08,71.93,246.32,69.45,246.32,66.85z"/>
			<path fill="#60AA43" d="M266.11,49.13v2.8c1.55-1.24,3.21-2.28,4.97-2.9c1.87-0.62,3.83-0.93,5.91-0.93
				c4.87,0,8.81,1.55,11.61,4.56c2.28,2.38,3.42,5.6,3.42,9.53v15.34c1.76,0,3.01,0.41,3.83,1.14c0.83,0.73,1.24,1.76,1.24,3.01
				c0,1.24-0.41,2.18-1.24,3.01c-0.83,0.73-2.28,1.14-4.25,1.14h-7.46c-1.97,0-3.42-0.41-4.25-1.14c-0.83-0.73-1.24-1.76-1.24-3.01
				c0-1.24,0.41-2.18,1.24-3.01c0.83-0.73,2.07-1.14,3.83-1.14V61.88c0-1.76-0.52-3.11-1.45-3.94c-1.24-1.04-3.11-1.66-5.7-1.66
				c-1.87,0-3.63,0.41-4.97,1.14c-1.45,0.73-3.21,2.28-5.49,4.66v15.34c2.07,0,3.52,0.21,4.15,0.62c1.35,0.83,1.97,1.97,1.97,3.52
				c0,1.24-0.41,2.18-1.24,3.01c-0.83,0.73-2.28,1.14-4.25,1.14h-9.43c-1.97,0-3.42-0.41-4.25-1.14c-0.83-0.73-1.24-1.76-1.24-3.01
				c0-1.55,0.62-2.69,1.97-3.52c0.62-0.41,2.07-0.62,4.15-0.62v-20.1c-1.76,0-3.01-0.41-3.83-1.14c-0.83-0.83-1.24-1.76-1.24-3.01
				c0-1.24,0.41-2.18,1.24-3.01c0.83-0.73,2.28-1.14,4.25-1.14h7.77V49.13z"/>
		</g>
		<g>
			<path fill="#60AA43" d="M329.33,48.62h1.45c1.45,0,2.8,0.52,3.83,1.55c1.04,1.04,1.55,2.28,1.55,3.83c0,1.55-0.52,2.9-1.66,3.94
				c-1.04,1.04-2.38,1.55-3.83,1.55h-1.45c-1.45,0-2.8-0.52-3.83-1.55c-1.04-1.04-1.55-2.28-1.55-3.83c0-1.55,0.52-2.9,1.66-3.94
				C326.53,49.13,327.88,48.62,329.33,48.62z M329.33,73.59h1.45c1.45,0,2.8,0.52,3.83,1.55c1.04,1.04,1.55,2.28,1.55,3.83
				c0,1.55-0.52,2.8-1.66,3.83c-1.04,1.04-2.38,1.55-3.83,1.55h-1.45c-1.45,0-2.8-0.52-3.83-1.55c-1.04-1.04-1.55-2.28-1.55-3.83
				c0-1.55,0.52-2.8,1.66-3.83C326.53,74.11,327.88,73.59,329.33,73.59z"/>
			<path fill="#60AA43" d="M360.73,63.33c1.35,1.04,2.28,1.97,2.69,2.9c0.62,1.24,0.93,2.59,0.93,4.25v14.3
				c0,1.55,0.41,2.8,1.35,3.73c0.83,0.93,1.97,1.55,3.32,1.66c0.83,0.1,1.35,0.21,1.66,0.52c0.31,0.31,0.52,0.73,0.52,1.24
				s-0.21,0.93-0.52,1.24c-0.31,0.31-0.83,0.41-1.55,0.41c-2.07,0-3.83-0.62-5.28-1.97c-1.87-1.87-2.8-4.04-2.8-6.74v-14.4
				c0-1.45-0.41-2.69-1.35-3.73c-0.83-1.04-1.97-1.55-3.32-1.66c-0.73-0.1-1.24-0.31-1.55-0.52c-0.31-0.31-0.41-0.73-0.41-1.24
				s0.1-0.93,0.41-1.24c0.31-0.31,0.83-0.52,1.55-0.52c1.35-0.1,2.49-0.62,3.42-1.66c0.83-1.04,1.35-2.18,1.35-3.73v-14.4
				c0-2.49,0.83-4.56,2.38-6.22c1.55-1.66,3.52-2.49,5.7-2.49c0.62,0,1.14,0.21,1.45,0.52c0.31,0.31,0.52,0.73,0.52,1.24
				s-0.21,0.83-0.52,1.24c-0.21,0.31-0.83,0.41-1.66,0.52c-1.35,0.1-2.38,0.73-3.32,1.66c-0.83,0.93-1.35,2.18-1.35,3.63v14.4
				c0,1.66-0.31,3.01-0.83,4.04C363.01,61.26,362.07,62.3,360.73,63.33z"/>
			<path d="M406.42,67.58h-22.07l-4.56,12.23h6.42c0.83,0,1.35,0.1,1.76,0.41c0.31,0.31,0.52,0.73,0.52,1.24s-0.21,0.83-0.52,1.24
				c-0.31,0.31-0.93,0.52-1.76,0.52h-12.54c-0.83,0-1.35-0.21-1.76-0.52c-0.31-0.31-0.52-0.73-0.52-1.24s0.21-0.93,0.52-1.24
				c0.31-0.31,0.93-0.41,1.76-0.41h2.59l14.82-40h-9.84c-0.83,0-1.35-0.1-1.76-0.41c-0.31-0.31-0.52-0.73-0.52-1.24
				s0.21-0.93,0.52-1.24c0.31-0.31,0.93-0.41,1.76-0.41h16.89l16.37,43.32h2.59c0.83,0,1.35,0.1,1.76,0.41
				c0.31,0.31,0.52,0.73,0.52,1.24s-0.21,0.83-0.52,1.24c-0.31,0.31-0.93,0.52-1.76,0.52h-12.44c-0.83,0-1.45-0.21-1.76-0.52
				c-0.31-0.31-0.52-0.73-0.52-1.24s0.21-0.93,0.52-1.24c0.31-0.31,0.93-0.41,1.76-0.41h6.42L406.42,67.58z M405.08,64.26
				l-9.22-24.35h-1.24l-9.02,24.35H405.08z"/>
			<path d="M455.03,41.05v-2.38c0-0.83,0.1-1.35,0.41-1.76c0.31-0.31,0.73-0.52,1.24-0.52c0.52,0,0.93,0.21,1.24,0.52
				c0.31,0.31,0.41,0.93,0.41,1.76v9.33c0,0.83-0.1,1.45-0.41,1.76c-0.31,0.31-0.73,0.52-1.24,0.52c-0.41,0-0.83-0.21-1.14-0.52
				c-0.31-0.31-0.52-0.83-0.52-1.55c-0.1-2.28-1.35-4.25-3.63-5.91c-3.11-2.38-6.63-3.52-10.57-3.52c-2.59,0-4.97,0.62-7.25,1.76
				c-1.66,0.83-3.11,1.87-4.04,3.01c-1.76,2.07-3.11,4.35-4.15,6.94c-0.73,1.87-1.14,3.94-1.14,6.32v5.91
				c0,4.97,1.76,9.33,5.39,13.06c3.63,3.73,7.77,5.49,12.64,5.49c2.9,0,5.49-0.62,7.67-1.87c2.28-1.24,4.46-3.11,6.63-5.7
				c0.41-0.52,0.93-0.83,1.55-0.83c0.52,0,0.83,0.1,1.14,0.41c0.31,0.31,0.41,0.62,0.41,1.14c0,0.62-0.62,1.55-1.76,2.8
				c-2.18,2.49-4.66,4.25-7.36,5.49c-2.69,1.24-5.49,1.87-8.29,1.87c-2.38,0-4.87-0.41-7.36-1.35c-1.87-0.73-3.52-1.55-4.77-2.49
				c-1.24-0.93-2.8-2.59-4.56-4.87c-1.87-2.28-3.11-4.35-3.73-6.32c-0.62-1.97-1.04-4.04-1.04-6.32v-6.84
				c0-3.32,0.93-6.63,2.69-10.16c1.76-3.42,4.15-6.11,7.25-7.98c3.11-1.87,6.42-2.8,9.95-2.8
				C446.32,35.46,451.09,37.32,455.03,41.05z"/>
			<path d="M496.27,67.58H474.2l-4.56,12.23h6.42c0.83,0,1.35,0.1,1.76,0.41c0.31,0.31,0.52,0.73,0.52,1.24s-0.21,0.83-0.52,1.24
				c-0.31,0.31-0.93,0.52-1.76,0.52h-12.54c-0.83,0-1.35-0.21-1.76-0.52c-0.31-0.31-0.52-0.73-0.52-1.24s0.21-0.93,0.52-1.24
				c0.31-0.31,0.93-0.41,1.76-0.41h2.59l14.82-40h-9.84c-0.83,0-1.35-0.1-1.76-0.41c-0.31-0.31-0.52-0.73-0.52-1.24
				s0.21-0.93,0.52-1.24c0.31-0.31,0.93-0.41,1.76-0.41h16.99l16.37,43.32h2.59c0.83,0,1.35,0.1,1.76,0.41
				c0.31,0.31,0.52,0.73,0.52,1.24s-0.21,0.83-0.52,1.24c-0.31,0.31-0.93,0.52-1.76,0.52h-12.44c-0.83,0-1.45-0.21-1.76-0.52
				c-0.31-0.31-0.52-0.73-0.52-1.24s0.21-0.93,0.52-1.24c0.31-0.31,0.93-0.41,1.76-0.41h6.42L496.27,67.58z M495.03,64.26
				l-9.22-24.35h-1.24l-9.02,24.35H495.03z"/>
			<path d="M517.1,79.81v-40h-2.8c-0.83,0-1.35-0.1-1.76-0.41c-0.31-0.31-0.52-0.73-0.52-1.24s0.21-0.93,0.52-1.24
				c0.31-0.31,0.93-0.41,1.76-0.41h18.03c2.8,0,5.39,0.62,7.67,1.76c2.28,1.14,4.15,2.49,5.28,3.94c2.07,2.49,3.73,5.18,4.77,7.98
				c0.73,2.07,1.14,4.46,1.14,7.25v4.66c0,3.42-0.73,6.74-2.28,9.95s-4.04,6.01-7.56,8.39c-2.59,1.76-5.7,2.59-9.12,2.59H514.2
				c-0.83,0-1.35-0.21-1.76-0.52c-0.31-0.31-0.52-0.73-0.52-1.24s0.21-0.93,0.52-1.24c0.31-0.31,0.93-0.41,1.76-0.41h2.9V79.81z
				 M520.41,79.81h12.12c2.8,0,5.49-0.93,7.88-2.8c2.49-1.87,4.35-4.04,5.6-6.63s1.87-5.08,1.87-7.56V56.7
				c0-2.07-0.31-3.94-1.04-5.6c-0.93-2.38-2.28-4.66-4.04-6.74c-0.93-1.14-2.38-2.28-4.25-3.21c-1.87-0.93-3.83-1.45-6.01-1.45
				h-12.12V79.81z"/>
			<path d="M564.25,60.64v19.17h25.8v-9.84c0-0.83,0.1-1.35,0.41-1.76c0.31-0.31,0.73-0.52,1.24-0.52s0.93,0.21,1.24,0.52
				s0.41,0.93,0.41,1.76v13.26h-36.99c-0.83,0-1.35-0.21-1.76-0.52c-0.31-0.31-0.52-0.73-0.52-1.24s0.21-0.93,0.52-1.24
				c0.31-0.31,0.93-0.41,1.76-0.41h4.56v-40h-4.56c-0.83,0-1.35-0.1-1.76-0.41c-0.31-0.31-0.52-0.73-0.52-1.24s0.21-0.93,0.52-1.24
				c0.31-0.31,0.93-0.41,1.76-0.41h35.23v11.5c0,0.83-0.1,1.35-0.41,1.76c-0.31,0.31-0.73,0.52-1.24,0.52s-0.93-0.21-1.24-0.52
				c-0.31-0.31-0.41-0.93-0.41-1.76v-8.19h-24.04v17.41h12.02v-3.73c0-0.83,0.21-1.35,0.52-1.76c0.31-0.31,0.73-0.52,1.24-0.52
				s0.83,0.21,1.24,0.52c0.31,0.31,0.52,0.93,0.52,1.76v10.88c0,0.83-0.21,1.35-0.52,1.76c-0.31,0.31-0.73,0.52-1.24,0.52
				s-0.93-0.21-1.24-0.52s-0.52-0.93-0.52-1.76v-3.83h-12.02V60.64z"/>
			<path d="M622.28,69.13h-3.83L605.6,39.81h-0.62v40h6.22c0.83,0,1.35,0.1,1.76,0.41c0.31,0.31,0.52,0.73,0.52,1.24
				s-0.21,0.83-0.52,1.24c-0.31,0.31-0.93,0.52-1.76,0.52h-12.33c-0.83,0-1.35-0.21-1.76-0.52c-0.31-0.31-0.52-0.73-0.52-1.24
				s0.21-0.93,0.52-1.24c0.31-0.31,0.93-0.41,1.76-0.41h2.8v-40h-2.07c-0.83,0-1.35-0.1-1.76-0.41c-0.31-0.31-0.52-0.73-0.52-1.24
				s0.21-0.93,0.52-1.24c0.31-0.31,0.93-0.41,1.76-0.41h8.19l12.64,28.91l12.44-28.91h8.19c0.83,0,1.45,0.1,1.76,0.41
				s0.52,0.73,0.52,1.24s-0.21,0.93-0.52,1.24c-0.31,0.31-0.93,0.41-1.76,0.41h-2.07v40h2.8c0.83,0,1.45,0.1,1.76,0.41
				s0.52,0.73,0.52,1.24s-0.21,0.83-0.52,1.24c-0.31,0.31-0.93,0.52-1.76,0.52h-12.33c-0.83,0-1.35-0.21-1.76-0.52
				c-0.31-0.31-0.52-0.73-0.52-1.24s0.21-0.93,0.52-1.24c0.31-0.31,0.93-0.41,1.76-0.41h6.22v-40h-0.73L622.28,69.13z"/>
			<path d="M666.74,39.81v40h11.5c0.83,0,1.35,0.1,1.76,0.41c0.31,0.31,0.52,0.73,0.52,1.24s-0.21,0.83-0.52,1.24
				c-0.31,0.31-0.93,0.52-1.76,0.52h-26.32c-0.83,0-1.35-0.21-1.76-0.52c-0.31-0.31-0.52-0.73-0.52-1.24s0.21-0.93,0.52-1.24
				c0.31-0.31,0.93-0.41,1.76-0.41h11.5v-40h-11.5c-0.83,0-1.35-0.1-1.76-0.41c-0.31-0.31-0.52-0.73-0.52-1.24s0.21-0.93,0.52-1.24
				c0.31-0.31,0.93-0.41,1.76-0.41h26.32c0.83,0,1.35,0.1,1.76,0.41c0.31,0.31,0.52,0.73,0.52,1.24s-0.21,0.93-0.52,1.24
				c-0.31,0.31-0.93,0.41-1.76,0.41H666.74z"/>
			<path d="M721.04,67.58h-22.07l-4.56,12.23h6.42c0.83,0,1.35,0.1,1.76,0.41c0.31,0.31,0.52,0.73,0.52,1.24s-0.21,0.83-0.52,1.24
				c-0.31,0.31-0.93,0.52-1.76,0.52h-12.54c-0.83,0-1.35-0.21-1.76-0.52c-0.31-0.31-0.52-0.73-0.52-1.24s0.21-0.93,0.52-1.24
				c0.31-0.31,0.93-0.41,1.76-0.41h2.59l14.82-40h-9.84c-0.83,0-1.35-0.1-1.76-0.41c-0.31-0.31-0.52-0.73-0.52-1.24
				s0.21-0.93,0.52-1.24c0.31-0.31,0.93-0.41,1.76-0.41h16.89l16.37,43.32h2.59c0.83,0,1.35,0.1,1.76,0.41
				c0.31,0.31,0.52,0.73,0.52,1.24s-0.21,0.83-0.52,1.24c-0.31,0.31-0.93,0.52-1.76,0.52h-12.44c-0.83,0-1.45-0.21-1.76-0.52
				c-0.31-0.31-0.52-0.73-0.52-1.24s0.21-0.93,0.52-1.24c0.31-0.31,0.93-0.41,1.76-0.41h6.42L721.04,67.58z M719.69,64.26
				l-9.22-24.35h-1.24l-9.02,24.35H719.69z"/>
			<path fill="#60AA43" d="M756.89,63.33c-1.35-1.04-2.28-1.97-2.69-2.9c-0.62-1.14-0.93-2.59-0.93-4.25v-14.4
				c0-1.45-0.41-2.69-1.35-3.73c-0.83-0.93-1.97-1.55-3.32-1.66c-0.83-0.1-1.35-0.21-1.66-0.52s-0.52-0.73-0.52-1.24
				c0-0.52,0.21-0.83,0.52-1.24s0.83-0.52,1.45-0.52c2.18,0,3.83,0.73,5.28,2.07c1.87,1.76,2.8,4.04,2.8,6.74v14.4
				c0,1.45,0.41,2.69,1.35,3.73s1.97,1.55,3.42,1.66c0.73,0.1,1.24,0.31,1.55,0.52c0.31,0.31,0.41,0.73,0.41,1.24
				s-0.1,0.93-0.41,1.24c-0.31,0.31-0.83,0.52-1.55,0.52c-1.35,0.1-2.49,0.62-3.42,1.66c-0.83,1.04-1.35,2.18-1.35,3.73v14.4
				c0,2.49-0.83,4.56-2.38,6.22c-1.55,1.66-3.52,2.49-5.7,2.49c-0.62,0-1.14-0.21-1.45-0.52s-0.52-0.73-0.52-1.24
				c0-0.52,0.21-0.83,0.52-1.24c0.31-0.21,0.83-0.41,1.66-0.52c1.35-0.1,2.38-0.73,3.32-1.66c0.83-1.04,1.35-2.18,1.35-3.73v-14.3
				c0-1.66,0.31-3.01,0.83-4.04C754.61,65.3,755.54,64.37,756.89,63.33z"/>
		</g>
	</g>
</g>
</svg>
